<?xml version="1.0" ?><svg enable-background="new 0 0 32 32" version="1.1" viewBox="0 0 32 32" xml:space="preserve" xmlns="http://www.w3.org/2000/svg" xmlns:xlink="http://www.w3.org/1999/xlink"><g id="Flat_copy"><path d="M26.552,7.32c-0.025,0.036-2.218,3.203-7.612,5.406c0.317,0.652,0.625,1.315,0.909,1.981   c0.101,0.239,0.2,0.473,0.295,0.708c4.694-0.591,9.318,0.402,9.516,0.444C29.627,12.62,28.468,9.648,26.552,7.32z M20.976,17.572   c1.792,4.925,2.52,8.936,2.659,9.76c3.067-2.07,5.247-5.357,5.855-9.165C29.208,18.075,25.386,16.865,20.976,17.572z M21.334,28.58   c-0.202-1.194-0.995-5.378-2.918-10.375c-0.031,0.011-0.061,0.02-0.092,0.031c-8.061,2.809-10.694,8.473-10.722,8.536   c2.319,1.804,5.229,2.893,8.398,2.893C17.892,29.663,19.694,29.278,21.334,28.58z M17.888,10.69   c5.155-1.932,7.101-4.895,7.135-4.945C22.618,3.624,19.459,2.338,16,2.338c-1.11,0-2.188,0.134-3.22,0.383   C12.985,2.995,15.551,6.4,17.888,10.69z M17.484,15.941c-0.343-0.777-0.717-1.555-1.108-2.322   c-7.036,2.107-13.786,1.955-14.028,1.946C2.344,15.711,2.336,15.853,2.336,16c0,3.51,1.324,6.711,3.501,9.128   c-0.005-0.006,3.735-6.64,11.108-9.025C17.122,16.045,17.304,15.992,17.484,15.941z M31.673,12.779C31.889,13.831,32,14.915,32,16   c0,1.083-0.11,2.165-0.327,3.22c-0.211,1.03-0.524,2.041-0.933,3.008c-0.4,0.949-0.895,1.864-1.475,2.717   c-0.571,0.848-1.229,1.642-1.952,2.368c-0.725,0.721-1.521,1.378-2.367,1.953c-0.855,0.576-1.77,1.071-2.718,1.474   c-0.966,0.408-1.978,0.72-3.006,0.931C18.167,31.889,17.083,32,16,32c-1.085,0-2.169-0.11-3.222-0.329   c-1.029-0.211-2.041-0.524-3.007-0.931c-0.949-0.403-1.864-0.898-2.719-1.474c-0.846-0.574-1.642-1.232-2.365-1.953   c-0.724-0.726-1.381-1.52-1.953-2.368c-0.577-0.853-1.074-1.769-1.475-2.717c-0.409-0.966-0.723-1.978-0.935-3.008   C0.109,18.166,0,17.084,0,16c0-1.085,0.109-2.169,0.324-3.221c0.212-1.03,0.525-2.042,0.934-3.007   c0.402-0.951,0.898-1.866,1.475-2.719c0.571-0.849,1.23-1.642,1.953-2.368c0.723-0.722,1.519-1.377,2.365-1.951   c0.855-0.579,1.77-1.076,2.719-1.478c0.966-0.409,1.978-0.722,3.007-0.932C13.831,0.109,14.915,0,16,0   c1.083,0,2.167,0.109,3.222,0.325c1.028,0.21,2.039,0.523,3.006,0.932c0.949,0.402,1.863,0.899,2.718,1.478   c0.846,0.573,1.643,1.229,2.367,1.951c0.722,0.726,1.381,1.519,1.952,2.368c0.58,0.853,1.076,1.769,1.475,2.719   C31.15,10.737,31.463,11.749,31.673,12.779z M15.244,11.515c-2.365-4.202-4.892-7.631-5.074-7.873   c-3.811,1.799-6.654,5.311-7.541,9.542C2.989,13.186,8.683,13.258,15.244,11.515z"/></g></svg>