<?xml version="1.0" encoding="UTF-8" standalone="no"?>
<svg width="48px" height="48px" viewBox="0 0 48 48" version="1.1" xmlns="http://www.w3.org/2000/svg" xmlns:xlink="http://www.w3.org/1999/xlink" xmlns:sketch="http://www.bohemiancoding.com/sketch/ns">
    <!-- Generator: Sketch 3.5.1 (25234) - http://www.bohemiancoding.com/sketch -->
    <title>48</title>
    <desc>Created with Sketch.</desc>
    <defs>
        <path id="path-1" d="M0,0 L32.999491,0 L32.999491,43 L0,43 L0,0 Z"></path>
    </defs>
    <g id="Page-1" stroke="none" stroke-width="1" fill="none" fill-rule="evenodd" sketch:type="MSPage">
        <g id="48" sketch:type="MSArtboardGroup">
            <g id="500px-logo" sketch:type="MSLayerGroup" transform="translate(6.000000, 3.000000)">
                <mask id="mask-2" sketch:name="Clip 2" fill="white">
                    <use xlink:href="#path-1"></use>
                </mask>
                <g id="Clip-2"></g>
                <path d="M32.4259697,35.7407486 L32.4260545,35.7407486 C32.126764,35.4382006 31.8725198,35.2595786 31.6489003,35.1944766 C31.4221419,35.1285146 31.2197306,35.1777066 31.0632987,35.3367206 L30.9160288,35.4856726 C29.3746149,37.0484646 27.5796355,38.2754266 25.5809722,39.1324166 C23.5126612,40.0192486 21.3148951,40.4689426 19.0487537,40.4689426 C16.7825275,40.4689426 14.5848463,40.0192486 12.5165352,39.1324166 C10.5180416,38.2755126 8.72314704,37.0486366 7.18164833,35.4857586 C5.57567661,33.8576926 4.36545039,32.0381906 3.58464833,30.0777346 C2.82344267,28.1661266 2.57479743,26.7284646 2.49310334,26.2560666 C2.48546838,26.2117766 2.47936041,26.1767746 2.47460977,26.1514906 C2.36984113,25.5951566 1.86474602,25.5562846 1.13891568,25.6688586 C0.836995373,25.7156426 -0.0816601542,25.8581446 0.0058874036,26.5281706 L0.00792339332,26.5434786 C0.251139332,28.0944886 0.680817995,29.6153126 1.28499794,31.0635526 C2.25616504,33.3912286 3.64615219,35.4812006 5.41619075,37.2755046 C7.18631414,39.0700666 9.24809306,40.4790906 11.5440108,41.4634466 C13.9211136,42.4830626 16.4460802,43.0000086 19.0487537,43.0000086 C21.6500699,43.0000086 24.1750365,42.4828046 26.5534967,41.4626726 C28.8486509,40.4786606 30.9104298,39.0693786 32.6813167,37.2739566 C32.6853887,37.2698286 32.782183,37.1725626 32.8351188,37.1140826 C33.0299799,36.8989966 33.1995609,36.5226606 32.4259697,35.7407486 L32.4259697,35.7407486 Z M19.024746,4.6071146 C16.5376997,4.6071146 13.8922704,5.1160626 11.9485789,5.9684086 C11.7407383,6.0508826 11.6165429,6.2200446 11.5893116,6.4577486 C11.5637769,6.6819506 11.6234992,6.9777906 11.7721265,7.3627266 C11.8925892,7.6749926 12.2128334,8.5044626 12.8326226,8.2647806 C14.8218694,7.4955106 17.0209928,7.0718746 19.024746,7.0718746 C21.2952139,7.0718746 23.4972216,7.5224286 25.5696895,8.4109806 C27.2164658,9.1172126 28.7701805,10.1372586 30.4595429,11.6212746 C30.5826355,11.7295486 30.713363,11.7844166 30.8479928,11.7844166 C31.1773141,11.7844166 31.4932319,11.4564126 31.7635095,11.1490486 C32.2145661,10.6360586 32.524291,10.2096706 32.0799362,9.7829386 C30.4667537,8.2337346 28.6990057,7.0764326 26.516764,6.1409246 C24.1433938,5.1232006 21.6227537,4.6071146 19.024746,4.6071146 L19.024746,4.6071146 Z M15.6342293,25.9242786 C15.6372833,26.2092826 15.8944967,26.4591126 16.048129,26.6084086 L16.096399,26.6556226 C16.35989,26.9183526 16.6109105,27.0515666 16.8422499,27.0515666 C17.0339722,27.0515666 17.1520596,26.9596326 17.1938823,26.9201586 C17.3099337,26.8109386 18.6228925,25.4622006 18.7481059,25.3335446 L20.2124067,26.8131746 C20.3478848,26.9679746 20.4952396,27.0455466 20.6670262,27.0503626 C20.9008257,27.0503626 21.1555789,26.9094086 21.4243296,26.6314566 C22.0560802,25.9774266 21.7399928,25.6247406 21.5871239,25.4542886 L20.1034812,23.9498046 L21.6506638,22.3702426 C21.9899954,21.9980346 21.6904504,21.6025206 21.3915841,21.2995426 C20.9575789,20.8595666 20.5389285,20.7460466 20.2706021,20.9967366 L18.7321573,22.5590126 L17.1764915,20.9814286 C17.0940339,20.9013626 16.9900288,20.8590506 16.8757589,20.8590506 C16.6684272,20.8590506 16.4230905,21.0011226 16.1466201,21.2814826 C15.6681625,21.7664366 15.5655147,22.1016646 15.8145841,22.3691246 L17.370674,23.9418926 L15.823746,25.5129406 C15.6964967,25.6417686 15.6327023,25.7801426 15.6342293,25.9242786 L15.6342293,25.9242786 Z M5.76892596,28.2535886 C5.77817275,28.2796466 5.99797481,28.8956646 6.125309,29.2009646 C6.8242473,30.8763306 7.82510591,32.3812446 9.10031414,33.6739106 C10.3745044,34.9656306 11.859165,35.9801726 13.513237,36.6894146 C15.2254195,37.4236826 17.0438129,37.7959766 18.9178566,37.7959766 C20.7916458,37.7959766 22.6100391,37.4235966 24.3225609,36.6892426 C25.9759542,35.9803446 27.4606997,34.9656306 28.7354838,33.6733086 C30.0100982,32.3812446 31.0110416,30.8760726 31.7104889,29.1997606 C32.4347923,27.4637646 32.8020339,25.6203546 32.8020339,23.7207006 C32.8020339,21.8208746 32.4347923,19.9774646 31.7104889,18.2416406 C31.0111265,16.5655006 30.0102679,15.0603286 28.7354838,13.7680066 C27.4611239,12.4760286 25.9763784,11.4612286 24.3225609,10.7520726 C22.6102087,10.0178046 20.7918154,9.6455106 18.9178566,9.6455106 C17.0217563,9.6455106 15.1270134,10.0281246 13.4385841,10.7520726 C12.0890622,11.3308526 9.80468175,12.8208886 8.4675455,14.2189046 L8.45965604,14.2270746 L8.45965604,2.6433906 L27.6539491,2.6432186 C28.3523784,2.6354786 28.3523784,1.6466506 28.3523784,1.3216566 C28.3523784,0.9968346 28.3523784,0.0082646 27.6517434,0.0001806 L6.8977126,8.6e-06 C6.33264062,8.6e-06 5.98295938,0.4764486 5.98295938,0.9178866 L5.98295938,17.2225406 C5.98295938,17.7485166 6.62930129,18.1283786 7.22983342,18.2585826 C8.40264833,18.5125406 8.67360463,18.1325066 8.96076401,17.7303706 L8.99885398,17.6770506 C9.43735527,17.0166566 10.807746,15.6185546 10.8214041,15.6046226 C12.9599568,13.4367346 15.8193347,12.2428826 18.8726406,12.2428826 C21.9114401,12.2428826 24.762674,13.4367346 26.9011419,15.6046226 C29.0469054,17.7799066 30.2286278,20.6622826 30.2286278,23.7207006 C30.2286278,26.7902126 29.0529285,29.6724166 26.9181933,31.8366066 C24.8106046,33.9731046 21.8664787,35.1984326 18.8406586,35.1984326 C16.7911805,35.1984326 14.8128771,34.6448506 13.1181702,33.5971986 L13.1254658,23.6832906 C13.1254658,22.3613846 13.6913013,20.9244106 14.6391393,19.8392626 C15.72271,18.5987126 17.2161085,17.9155286 18.8443064,17.9155286 C20.4210956,17.9155286 21.8937949,18.5223446 22.9911085,19.6242626 C24.0804478,20.7183546 24.680471,22.1759686 24.680471,23.7286986 C24.680471,27.0416766 22.1107126,29.6368126 18.8301393,29.6368126 C18.1977949,29.6368126 17.0481393,29.3535286 17.0008874,29.3418326 C16.3384272,29.1418826 16.0566972,30.0741226 15.9639748,30.3814006 C15.6074221,31.5631266 16.1432267,31.7973906 16.2541882,31.8323926 C17.3099337,32.1645246 18.0020853,32.2274766 18.9102216,32.2274766 C23.5412499,32.2274766 27.3089337,28.4060666 27.3089337,23.7090906 C27.3089337,19.0497826 23.5435404,15.2590746 18.9153964,15.2590746 C16.6489157,15.2590746 14.5196946,16.1373926 12.9200853,17.7321766 C11.396656,19.2510226 10.522962,21.2761506 10.522962,23.2878626 L10.5221136,23.3378286 C10.5146483,23.5886906 10.5098129,29.5318926 10.5084555,31.4822866 L10.4998026,31.4725686 C9.6292473,30.4954366 8.76895681,28.9997246 8.19845553,27.4715906 C7.97483599,26.8726866 7.46982571,26.9787246 6.78055835,27.1938966 C6.47957121,27.2878946 5.5635455,27.5739306 5.76612648,28.2452466 L5.76892596,28.2535886 Z" id="Fill-1" fill="#010201" sketch:type="MSShapeGroup" mask="url(#mask-2)"></path>
            </g>
        </g>
    </g>
</svg>