<svg width="32" height="32" viewBox="0 0 32 32" fill="none" xmlns="http://www.w3.org/2000/svg">
<g clip-path="url(#clip0)">
<path fill-rule="evenodd" clip-rule="evenodd" d="M16 0C7.16022 0 0 7.34278 0 16.4079C0 23.6601 4.58686 29.8042 10.9417 31.9799C11.7373 32.1309 12.0319 31.6273 12.0319 31.1841C12.0319 30.7913 12.0221 29.7639 12.0123 28.3941C7.56292 29.3812 6.62001 26.1983 6.62001 26.1983C5.89319 24.3047 4.84223 23.791 4.84223 23.791C3.38858 22.7737 4.95028 22.7938 4.95028 22.7938C6.55126 22.9147 7.40577 24.486 7.40577 24.486C8.82996 26.994 11.1479 26.2688 12.0614 25.8458C12.2087 24.7882 12.6212 24.063 13.0731 23.65C9.52732 23.2471 5.79497 21.837 5.79497 15.5518C5.79497 13.7589 6.41375 12.2984 7.44506 11.1501C7.27808 10.7271 6.72805 9.06516 7.59239 6.80894C7.59239 6.80894 8.938 6.36575 11.9926 8.49103C13.2695 8.12842 14.6347 7.94712 16 7.93705C17.3554 7.94712 18.7305 8.12842 20.0074 8.49103C23.062 6.36575 24.4076 6.80894 24.4076 6.80894C25.2818 9.06516 24.7317 10.7372 24.5648 11.1501C25.5862 12.2984 26.205 13.7589 26.205 15.5518C26.205 21.8571 22.4629 23.237 18.8975 23.65C19.4672 24.1536 19.9877 25.1608 19.9877 26.6918C19.9877 28.8876 19.9681 30.6503 19.9681 31.1942C19.9681 31.6374 20.2529 32.141 21.0681 31.9799C27.423 29.8042 32 23.6601 32 16.418C32 7.34278 24.8398 0 16 0Z" fill="#191717"/>
</g>
<defs>
<clipPath id="clip0">
<rect width="32" height="32" fill="white"/>
</clipPath>
</defs>
</svg>
